# xmcd
#
# Track frame offsets:
#	150
#	25614
#	47055
#	70053
#	89143
#	109518
#	126980
#	145533
#	201042
#	221609
#
# Disc length: 3296 seconds
#
# Revision: 3
# Processed by: cddbd v1.5.2PL0 Copyright (c) Steve Scherf et al.
# Submitted via: EasyCDDAExtractor 15.3.0.1
#
DISCID=8b0cde0a
DTITLE=Ricky Martin - Black And White Tour
DYEAR=2007
DGENRE=Latin
TTITLE0=Intro, Pegate, Raza De Mil Colores, Por Arriba, Por Abajo
TTITLE1=I Don't Care, Maria Mix
TTITLE2=Vuelve
TTITLE3=Revolucion
TTITLE4=It's Alright
TTITLE5=Livin' La Vida Loca
TTITLE6=Somos La Semilla
TTITLE7=Rave Intro, Drop It On Me, Lola, Lola, The Cup Of Life
TTITLE8=Tal Vez
TTITLE9=Tu Recuerdo (Featuring La Mari Of Chambao)
EXTD=
EXTT0=
EXTT1=
EXTT2=
EXTT3=
EXTT4=
EXTT5=
EXTT6=
EXTT7=
EXTT8=
EXTT9=
PLAYORDER=
